<svg xmlns="http://www.w3.org/2000/svg" version="1.1" xmlns:xlink="http://www.w3.org/1999/xlink" xmlns:svgjs="http://svgjs.dev/svgjs" width="1440" height="560" preserveAspectRatio="none" viewBox="0 0 1440 560"><g mask="url(&quot;#SvgjsMask2298&quot;)" fill="none"><rect width="1440" height="560" x="0" y="0" fill="url(&quot;#SvgjsLinearGradient2299&quot;)"></rect><path d="M1048 272L1047 -101" stroke-width="8" stroke="url(&quot;#SvgjsLinearGradient2300&quot;)" stroke-linecap="round" class="Down"></path><path d="M268 499L267 103" stroke-width="6" stroke="url(&quot;#SvgjsLinearGradient2301&quot;)" stroke-linecap="round" class="Up"></path><path d="M29 348L28 703" stroke-width="8" stroke="url(&quot;#SvgjsLinearGradient2301&quot;)" stroke-linecap="round" class="Up"></path><path d="M852 358L851 -11" stroke-width="6" stroke="url(&quot;#SvgjsLinearGradient2300&quot;)" stroke-linecap="round" class="Down"></path><path d="M298 343L297 24" stroke-width="8" stroke="url(&quot;#SvgjsLinearGradient2300&quot;)" stroke-linecap="round" class="Down"></path><path d="M1045 236L1044 -144" stroke-width="10" stroke="url(&quot;#SvgjsLinearGradient2300&quot;)" stroke-linecap="round" class="Down"></path><path d="M70 391L69 77" stroke-width="8" stroke="url(&quot;#SvgjsLinearGradient2301&quot;)" stroke-linecap="round" class="Up"></path><path d="M113 368L112 755" stroke-width="10" stroke="url(&quot;#SvgjsLinearGradient2301&quot;)" stroke-linecap="round" class="Up"></path><path d="M1104 443L1103 70" stroke-width="6" stroke="url(&quot;#SvgjsLinearGradient2301&quot;)" stroke-linecap="round" class="Up"></path><path d="M1433 202L1432 -86" stroke-width="8" stroke="url(&quot;#SvgjsLinearGradient2301&quot;)" stroke-linecap="round" class="Up"></path><path d="M413 513L412 789" stroke-width="6" stroke="url(&quot;#SvgjsLinearGradient2301&quot;)" stroke-linecap="round" class="Up"></path><path d="M1130 33L1129 381" stroke-width="6" stroke="url(&quot;#SvgjsLinearGradient2301&quot;)" stroke-linecap="round" class="Up"></path><path d="M1370 498L1369 829" stroke-width="8" stroke="url(&quot;#SvgjsLinearGradient2301&quot;)" stroke-linecap="round" class="Up"></path><path d="M325 199L324 465" stroke-width="6" stroke="url(&quot;#SvgjsLinearGradient2301&quot;)" stroke-linecap="round" class="Up"></path><path d="M667 227L666 24" stroke-width="6" stroke="url(&quot;#SvgjsLinearGradient2300&quot;)" stroke-linecap="round" class="Down"></path><path d="M1332 555L1331 809" stroke-width="10" stroke="url(&quot;#SvgjsLinearGradient2300&quot;)" stroke-linecap="round" class="Down"></path><path d="M120 497L119 687" stroke-width="6" stroke="url(&quot;#SvgjsLinearGradient2300&quot;)" stroke-linecap="round" class="Down"></path><path d="M617 545L616 801" stroke-width="8" stroke="url(&quot;#SvgjsLinearGradient2300&quot;)" stroke-linecap="round" class="Down"></path><path d="M286 399L285 733" stroke-width="6" stroke="url(&quot;#SvgjsLinearGradient2300&quot;)" stroke-linecap="round" class="Down"></path><path d="M184 511L183 748" stroke-width="8" stroke="url(&quot;#SvgjsLinearGradient2300&quot;)" stroke-linecap="round" class="Down"></path><path d="M288 159L287 547" stroke-width="8" stroke="url(&quot;#SvgjsLinearGradient2301&quot;)" stroke-linecap="round" class="Up"></path><path d="M939 541L938 689" stroke-width="8" stroke="url(&quot;#SvgjsLinearGradient2301&quot;)" stroke-linecap="round" class="Up"></path><path d="M290 269L289 424" stroke-width="6" stroke="url(&quot;#SvgjsLinearGradient2300&quot;)" stroke-linecap="round" class="Down"></path><path d="M1195 80L1194 -315" stroke-width="8" stroke="url(&quot;#SvgjsLinearGradient2301&quot;)" stroke-linecap="round" class="Up"></path><path d="M260 31L259 325" stroke-width="10" stroke="url(&quot;#SvgjsLinearGradient2301&quot;)" stroke-linecap="round" class="Up"></path><path d="M277 324L276 569" stroke-width="8" stroke="url(&quot;#SvgjsLinearGradient2300&quot;)" stroke-linecap="round" class="Down"></path><path d="M564 458L563 767" stroke-width="10" stroke="url(&quot;#SvgjsLinearGradient2300&quot;)" stroke-linecap="round" class="Down"></path><path d="M860 360L859 708" stroke-width="10" stroke="url(&quot;#SvgjsLinearGradient2300&quot;)" stroke-linecap="round" class="Down"></path><path d="M10 56L9 -360" stroke-width="6" stroke="url(&quot;#SvgjsLinearGradient2301&quot;)" stroke-linecap="round" class="Up"></path><path d="M163 468L162 257" stroke-width="6" stroke="url(&quot;#SvgjsLinearGradient2301&quot;)" stroke-linecap="round" class="Up"></path><path d="M296 513L295 317" stroke-width="6" stroke="url(&quot;#SvgjsLinearGradient2300&quot;)" stroke-linecap="round" class="Down"></path><path d="M688 541L687 809" stroke-width="8" stroke="url(&quot;#SvgjsLinearGradient2301&quot;)" stroke-linecap="round" class="Up"></path><path d="M449 439L448 158" stroke-width="6" stroke="url(&quot;#SvgjsLinearGradient2300&quot;)" stroke-linecap="round" class="Down"></path><path d="M1233 268L1232 534" stroke-width="8" stroke="url(&quot;#SvgjsLinearGradient2300&quot;)" stroke-linecap="round" class="Down"></path><path d="M950 435L949 654" stroke-width="6" stroke="url(&quot;#SvgjsLinearGradient2301&quot;)" stroke-linecap="round" class="Up"></path><path d="M246 259L245 -86" stroke-width="10" stroke="url(&quot;#SvgjsLinearGradient2301&quot;)" stroke-linecap="round" class="Up"></path></g><defs><mask id="SvgjsMask2298"><rect width="1440" height="560" fill="#ffffff"></rect></mask><linearGradient x1="50%" y1="100%" x2="50%" y2="0%" gradientUnits="userSpaceOnUse" id="SvgjsLinearGradient2299"><stop stop-color="#0e2a47" offset="0"></stop><stop stop-color="rgba(15, 120, 255, 0.72)" offset="1"></stop></linearGradient><linearGradient x1="0%" y1="0%" x2="0%" y2="100%" id="SvgjsLinearGradient2300"><stop stop-color="rgba(239, 246, 255, 0)" offset="0"></stop><stop stop-color="rgba(239, 246, 255, 1)" offset="1"></stop></linearGradient><linearGradient x1="0%" y1="100%" x2="0%" y2="0%" id="SvgjsLinearGradient2301"><stop stop-color="rgba(239, 246, 255, 0)" offset="0"></stop><stop stop-color="rgba(239, 246, 255, 1)" offset="1"></stop></linearGradient></defs></svg>